<mxfile host="www.draw.io" modified="2019-11-26T16:15:55.738Z" agent="Mozilla/5.0 (Windows NT 10.0; WOW64) AppleWebKit/537.36 (KHTML, like Gecko) Chrome/70.0.3538.25 Safari/537.36 Core/1.70.3732.400 QQBrowser/10.5.3819.400" etag="oRXdZg57FWLXAdu8J9pO" version="12.3.1" type="github" pages="2">
  <diagram id="dFLPB957eW2LdXgKGIzN" name="第 1 页">
    <mxGraphModel dx="1422" dy="770" grid="1" gridSize="10" guides="1" tooltips="1" connect="1" arrows="1" fold="1" page="1" pageScale="1" pageWidth="1100" pageHeight="850" math="0" shadow="0">
      <root>
        <mxCell id="0"/>
        <mxCell id="1" parent="0"/>
        <object label="&lt;div style=&quot;text-align: left&quot;&gt;智能硬件&lt;/div&gt;&lt;div style=&quot;text-align: left&quot;&gt;[软件系统]&lt;/div&gt;" placeholders="1" c4Name="智能硬件" c4Type="ExecutionEnvironment" c4Application="软件系统" id="0BXv9Z6ZCEVB2dCwjM8f-7">
          <mxCell style="rounded=1;whiteSpace=wrap;html=1;labelBackgroundColor=none;fillColor=#ffffff;fontColor=#000000;align=left;arcSize=3;strokeColor=#000000;verticalAlign=bottom;" parent="1" vertex="1">
            <mxGeometry x="240" y="360" width="520" height="420" as="geometry"/>
            <C4ExecutionEnvironment as="c4"/>
          </mxCell>
        </object>
        <mxCell id="0BXv9Z6ZCEVB2dCwjM8f-1" value="" style="group;rounded=0;labelBackgroundColor=none;fillColor=none;fontColor=#000000;align=center;html=1;" parent="1" vertex="1" connectable="0">
          <mxGeometry x="300" y="110" width="160" height="180" as="geometry"/>
          <C4Person as="c4"/>
        </mxCell>
        <object label="&lt;div&gt;用户&lt;/div&gt;&lt;div&gt;[Person]&lt;/div&gt;&lt;div&gt;&lt;br&gt;&lt;/div&gt;&lt;div&gt;使用手机&lt;/div&gt;" placeholders="1" c4Name="name" c4Type="body" c4Description="Beschreibung" id="0BXv9Z6ZCEVB2dCwjM8f-2">
          <mxCell style="rounded=1;whiteSpace=wrap;html=1;labelBackgroundColor=none;fillColor=#dae8fc;fontColor=#000000;align=center;arcSize=33;strokeColor=#6c8ebf;" parent="0BXv9Z6ZCEVB2dCwjM8f-1" vertex="1">
            <mxGeometry y="70" width="160" height="110" as="geometry"/>
            <C4Person as="c4"/>
          </mxCell>
        </object>
        <mxCell id="0BXv9Z6ZCEVB2dCwjM8f-3" value="" style="ellipse;whiteSpace=wrap;html=1;aspect=fixed;rounded=0;labelBackgroundColor=none;fillColor=#dae8fc;fontSize=12;fontColor=#000000;align=center;strokeColor=#6c8ebf;" parent="0BXv9Z6ZCEVB2dCwjM8f-1" vertex="1">
          <mxGeometry x="40" width="80" height="80" as="geometry"/>
          <C4Person as="c4"/>
        </mxCell>
        <object label="微信小程序&lt;div&gt;[Software System]&lt;/div&gt;&lt;div&gt;&lt;br&gt;&lt;/div&gt;&lt;div&gt;通过BL蓝牙收集硬件传来的状态，电量，运动数据，向硬件发送控制命令。通过微信服务获取微信用户数据，展示硬件传来的状态,运动数据，灯光效果等" placeholders="1" c4Name="微信小程序" c4Type="SoftwareSystem" c4Description="通过BL蓝牙收集硬件传来的状态，电量，运动数据，向硬件发送控制命令。通过微信服务获取微信用户数据，展示硬件传来的状态,运动数据，灯光效果等" id="0BXv9Z6ZCEVB2dCwjM8f-4">
          <mxCell style="rounded=1;whiteSpace=wrap;html=1;labelBackgroundColor=none;fillColor=#dae8fc;fontColor=#000000;align=center;arcSize=7;strokeColor=#6c8ebf;" parent="1" vertex="1">
            <mxGeometry x="260" y="380" width="250" height="140" as="geometry"/>
            <C4SoftwareSystem as="c4"/>
          </mxCell>
        </object>
        <object label="单片机&lt;div&gt;[Software System]&lt;/div&gt;&lt;div&gt;&lt;br&gt;&lt;/div&gt;&lt;div&gt;硬件展示实际的灯光效果，以及记录毽子，跳绳的运动数据" placeholders="1" c4Name="单片机" c4Type="SoftwareSystem" c4Description="硬件展示实际的灯光效果，以及记录毽子，跳绳的运动数据" id="0BXv9Z6ZCEVB2dCwjM8f-6">
          <mxCell style="rounded=1;whiteSpace=wrap;html=1;labelBackgroundColor=none;fillColor=#BABABA;fontColor=#000000;align=center;arcSize=7;strokeColor=#6c8ebf;" parent="1" vertex="1">
            <mxGeometry x="810" y="380" width="200" height="110" as="geometry"/>
            <C4SoftwareSystem as="c4"/>
          </mxCell>
        </object>
        <object label="后端java服务&lt;div&gt;[Software System]&lt;/div&gt;&lt;div&gt;&lt;br&gt;&lt;/div&gt;&lt;div&gt;提供小程序接口（好友，微信授权，登陆，设备管理，好友排名，历史数据，计划等），提供管理接口功能。" placeholders="1" c4Name="后端java服务" c4Type="SoftwareSystem" c4Description="提供小程序接口（好友，微信授权，登陆，设备管理，好友排名，历史数据，计划等），提供管理接口功能。" id="0BXv9Z6ZCEVB2dCwjM8f-8">
          <mxCell style="rounded=1;whiteSpace=wrap;html=1;labelBackgroundColor=none;fillColor=#dae8fc;fontColor=#000000;align=center;arcSize=7;strokeColor=#6c8ebf;" parent="1" vertex="1">
            <mxGeometry x="270" y="610" width="240" height="110" as="geometry"/>
            <C4SoftwareSystem as="c4"/>
          </mxCell>
        </object>
        <object label="微信服务器&lt;div&gt;[Software System]&lt;/div&gt;&lt;div&gt;&lt;br&gt;&lt;/div&gt;&lt;div&gt;微信提供授权，获取用户信息功能" placeholders="1" c4Name="微信服务器" c4Type="SoftwareSystem" c4Description="微信提供授权，获取用户信息功能" id="0BXv9Z6ZCEVB2dCwjM8f-9">
          <mxCell style="rounded=1;whiteSpace=wrap;html=1;labelBackgroundColor=none;fillColor=#BABABA;fontColor=#000000;align=center;arcSize=7;strokeColor=#6c8ebf;" parent="1" vertex="1">
            <mxGeometry x="810" y="610" width="200" height="110" as="geometry"/>
            <C4SoftwareSystem as="c4"/>
          </mxCell>
        </object>
        <object label="&lt;div style=&quot;text-align: left&quot;&gt;&lt;div style=&quot;text-align: center&quot;&gt;&lt;b&gt;游览/控制&lt;/b&gt;&lt;/div&gt;&lt;div style=&quot;text-align: center&quot;&gt;[触屏]&lt;/div&gt;&lt;/div&gt;" c4Type="Relationship" c4Description="游览/控制" c4Technology="触屏" id="0BXv9Z6ZCEVB2dCwjM8f-10">
          <mxCell style="edgeStyle=none;rounded=0;html=1;entryX=0.5;entryY=0;jettySize=auto;orthogonalLoop=1;strokeColor=#A8A8A8;strokeWidth=2;fontColor=#000000;jumpStyle=none;dashed=1;exitX=0.5;exitY=1;exitDx=0;exitDy=0;entryDx=0;entryDy=0;" parent="1" source="0BXv9Z6ZCEVB2dCwjM8f-2" target="0BXv9Z6ZCEVB2dCwjM8f-4" edge="1">
            <mxGeometry width="160" relative="1" as="geometry">
              <mxPoint x="380" y="310" as="sourcePoint"/>
              <mxPoint x="540" y="310" as="targetPoint"/>
            </mxGeometry>
            <C4Relationship as="c4"/>
          </mxCell>
        </object>
        <object label="&lt;div style=&quot;text-align: left&quot;&gt;&lt;div style=&quot;text-align: center&quot;&gt;&lt;b&gt;请求数据&lt;/b&gt;&lt;/div&gt;&lt;div style=&quot;text-align: center&quot;&gt;[蓝牙]&lt;/div&gt;&lt;/div&gt;" c4Type="Relationship" c4Description="请求数据" c4Technology="蓝牙" id="0BXv9Z6ZCEVB2dCwjM8f-11">
          <mxCell style="edgeStyle=none;rounded=0;html=1;entryX=0;entryY=0.75;jettySize=auto;orthogonalLoop=1;strokeColor=#6c8ebf;strokeWidth=2;fontColor=#000000;jumpStyle=none;dashed=1;exitX=1;exitY=0.571;exitDx=0;exitDy=0;exitPerimeter=0;entryDx=0;entryDy=0;fillColor=#dae8fc;" parent="1" source="0BXv9Z6ZCEVB2dCwjM8f-4" target="0BXv9Z6ZCEVB2dCwjM8f-6" edge="1">
            <mxGeometry width="160" relative="1" as="geometry">
              <mxPoint x="550" y="460" as="sourcePoint"/>
              <mxPoint x="710" y="460" as="targetPoint"/>
            </mxGeometry>
            <C4Relationship as="c4"/>
          </mxCell>
        </object>
        <object label="&lt;div style=&quot;text-align: left&quot;&gt;&lt;div style=&quot;text-align: center&quot;&gt;&lt;b&gt;回复/主动上传&lt;/b&gt;&lt;/div&gt;&lt;div style=&quot;text-align: center&quot;&gt;[蓝牙]&lt;/div&gt;&lt;/div&gt;" c4Type="Relationship" c4Description="回复/主动上传" c4Technology="蓝牙" id="0BXv9Z6ZCEVB2dCwjM8f-12">
          <mxCell style="edgeStyle=none;rounded=0;html=1;jettySize=auto;orthogonalLoop=1;strokeColor=#A8A8A8;strokeWidth=2;fontColor=#000000;jumpStyle=none;dashed=1;exitX=0;exitY=0.25;exitDx=0;exitDy=0;entryX=1;entryY=0.25;entryDx=0;entryDy=0;" parent="1" source="0BXv9Z6ZCEVB2dCwjM8f-6" target="0BXv9Z6ZCEVB2dCwjM8f-4" edge="1">
            <mxGeometry width="160" relative="1" as="geometry">
              <mxPoint x="590" y="410" as="sourcePoint"/>
              <mxPoint x="750" y="410" as="targetPoint"/>
              <Array as="points"/>
            </mxGeometry>
            <C4Relationship as="c4"/>
          </mxCell>
        </object>
        <object label="&lt;div style=&quot;text-align: left&quot;&gt;&lt;div style=&quot;text-align: center&quot;&gt;&lt;b&gt;请求数据&lt;/b&gt;&lt;/div&gt;&lt;div style=&quot;text-align: center&quot;&gt;[https]&lt;/div&gt;&lt;/div&gt;" c4Type="Relationship" c4Description="请求数据" c4Technology="https" id="0BXv9Z6ZCEVB2dCwjM8f-13">
          <mxCell style="edgeStyle=none;rounded=0;html=1;entryX=0.5;entryY=0;jettySize=auto;orthogonalLoop=1;strokeColor=#A8A8A8;strokeWidth=2;fontColor=#000000;jumpStyle=none;dashed=1;exitX=0.5;exitY=1;exitDx=0;exitDy=0;entryDx=0;entryDy=0;" parent="1" source="0BXv9Z6ZCEVB2dCwjM8f-4" target="0BXv9Z6ZCEVB2dCwjM8f-8" edge="1">
            <mxGeometry width="160" relative="1" as="geometry">
              <mxPoint x="480" y="560" as="sourcePoint"/>
              <mxPoint x="640" y="560" as="targetPoint"/>
            </mxGeometry>
            <C4Relationship as="c4"/>
          </mxCell>
        </object>
        <object label="&lt;div style=&quot;text-align: left&quot;&gt;&lt;div style=&quot;text-align: center&quot;&gt;&lt;b&gt;微信授权，获取微信用户信息&lt;/b&gt;&lt;/div&gt;&lt;div style=&quot;text-align: center&quot;&gt;[https]&lt;/div&gt;&lt;/div&gt;" c4Type="Relationship" c4Description="微信授权，获取微信用户信息" c4Technology="https" id="0BXv9Z6ZCEVB2dCwjM8f-14">
          <mxCell style="edgeStyle=none;rounded=0;html=1;entryX=0;entryY=0.5;jettySize=auto;orthogonalLoop=1;strokeColor=#A8A8A8;strokeWidth=2;fontColor=#000000;jumpStyle=none;dashed=1;exitX=1;exitY=0.5;exitDx=0;exitDy=0;entryDx=0;entryDy=0;" parent="1" source="0BXv9Z6ZCEVB2dCwjM8f-8" target="0BXv9Z6ZCEVB2dCwjM8f-9" edge="1">
            <mxGeometry width="160" relative="1" as="geometry">
              <mxPoint x="570" y="670" as="sourcePoint"/>
              <mxPoint x="730" y="670" as="targetPoint"/>
            </mxGeometry>
            <C4Relationship as="c4"/>
          </mxCell>
        </object>
        <object label="&lt;div style=&quot;text-align: left&quot;&gt;&lt;div style=&quot;text-align: center&quot;&gt;&lt;b&gt;微信通知微信小程序&lt;/b&gt;&lt;/div&gt;&lt;div style=&quot;text-align: center&quot;&gt;[微信，不知]&lt;/div&gt;&lt;/div&gt;" c4Type="Relationship" c4Description="微信通知微信小程序" c4Technology="微信，不知" id="0BXv9Z6ZCEVB2dCwjM8f-15">
          <mxCell style="edgeStyle=none;rounded=0;html=1;entryX=1;entryY=0.75;jettySize=auto;orthogonalLoop=1;strokeColor=#A8A8A8;strokeWidth=2;fontColor=#000000;jumpStyle=none;dashed=1;exitX=0.5;exitY=0;exitDx=0;exitDy=0;entryDx=0;entryDy=0;" parent="1" source="0BXv9Z6ZCEVB2dCwjM8f-9" target="0BXv9Z6ZCEVB2dCwjM8f-4" edge="1">
            <mxGeometry width="160" relative="1" as="geometry">
              <mxPoint x="540" y="550" as="sourcePoint"/>
              <mxPoint x="700" y="550" as="targetPoint"/>
            </mxGeometry>
            <C4Relationship as="c4"/>
          </mxCell>
        </object>
      </root>
    </mxGraphModel>
  </diagram>
  <diagram id="M_smlkzz42Mpam0_W2sp" name="第 2 页">
    <mxGraphModel dx="1422" dy="770" grid="1" gridSize="10" guides="1" tooltips="1" connect="1" arrows="1" fold="1" page="1" pageScale="1" pageWidth="827" pageHeight="1169" math="0" shadow="0">
      <root>
        <mxCell id="r4-1AyE3SMvCcNANmb57-0"/>
        <mxCell id="r4-1AyE3SMvCcNANmb57-1" parent="r4-1AyE3SMvCcNANmb57-0"/>
      </root>
    </mxGraphModel>
  </diagram>
</mxfile>
